<svg width="30" height="30" viewBox="0 0 30 30" fill="none" xmlns="http://www.w3.org/2000/svg">
<path d="M25.6109 11.2813C22.8822 10.1188 19.2159 9.36877 15.2984 9.16252C14.6734 9.12502 14.0647 9.11252 13.4859 9.11252C16.3834 5.57502 19.4884 3.20002 21.5322 3.12502C21.9347 3.10877 22.2759 3.19377 22.5484 3.37002C23.4309 3.94252 23.6797 5.58002 23.2297 7.85752C23.1797 8.17002 23.3797 8.47377 23.6797 8.53252C23.9922 8.59502 24.2922 8.39502 24.3547 8.08252C24.9172 5.23252 24.5047 3.27502 23.1797 2.41002C22.7047 2.10002 22.1297 1.95377 21.4922 1.97752C18.9297 2.07377 15.3172 4.85252 12.0047 9.12752C10.5622 9.17127 9.20468 9.29002 7.96468 9.48627C7.15718 5.86502 7.47718 3.26502 8.70718 2.64002C8.87968 2.54877 9.06343 2.50252 9.27843 2.48502C10.1497 2.41752 11.3534 2.97877 12.6659 4.07252C12.9084 4.27252 13.2734 4.24752 13.4734 3.99752C13.5215 3.93966 13.5576 3.87291 13.5798 3.80108C13.602 3.72924 13.6099 3.65373 13.6029 3.57886C13.596 3.50399 13.5743 3.43123 13.5392 3.36473C13.5041 3.29822 13.4563 3.23928 13.3984 3.19127C11.8234 1.88752 10.3709 1.25002 9.18343 1.33752C8.83462 1.36577 8.49418 1.45905 8.17968 1.61252C6.69218 2.37127 6.09218 4.52127 6.46718 7.66002C6.55468 8.31002 6.66718 8.98752 6.82968 9.68502C2.72843 10.505 0.11593 12.1475 0.00342976 14.215C-0.0715702 15.6775 1.08468 17.07 3.35343 18.2425C3.42088 18.2835 3.49604 18.3101 3.57422 18.3207C3.6524 18.3313 3.73193 18.3258 3.80786 18.3043C3.8838 18.2829 3.95451 18.2461 4.0156 18.1961C4.07669 18.1462 4.12685 18.0842 4.16296 18.0141C4.19906 17.9439 4.22035 17.8671 4.22548 17.7884C4.23062 17.7096 4.2195 17.6307 4.19281 17.5564C4.16612 17.4822 4.12443 17.4142 4.07035 17.3568C4.01627 17.2993 3.95094 17.2536 3.87843 17.2225C2.06593 16.2888 1.09093 15.2375 1.14968 14.275C1.21218 12.925 3.36468 11.5375 7.09968 10.8C7.43718 12.0425 7.87468 13.34 8.41218 14.6625C7.13968 17.0225 6.21718 19.3463 5.74093 21.4125C5.04093 24.4938 5.41593 26.6875 6.81593 27.5975C7.26593 27.89 7.79093 28.035 8.37468 28.035C9.54343 28.035 10.9584 27.46 12.5584 26.32C12.6234 26.2781 12.6791 26.2234 12.7224 26.1593C12.7656 26.0952 12.7954 26.0231 12.81 25.9471C12.8246 25.8712 12.8237 25.7931 12.8073 25.7176C12.7908 25.642 12.7593 25.5706 12.7145 25.5075C12.6697 25.4445 12.6127 25.3912 12.5467 25.3508C12.4808 25.3105 12.4074 25.2839 12.3309 25.2727C12.2544 25.2615 12.1764 25.2659 12.1016 25.2856C12.0269 25.3053 11.9569 25.34 11.8959 25.3875C9.96593 26.7663 8.34093 27.2275 7.44343 26.6413C6.49343 26.0225 6.28593 24.2125 6.86843 21.6713C7.26843 19.9388 8.00218 18.0088 9.00343 16.0213C9.25343 16.5688 9.51593 17.1163 9.79093 17.6625C11.5722 21.1575 13.7534 24.1963 15.9284 26.2188C17.6609 27.8313 19.2709 28.6725 20.5972 28.6725C21.0347 28.6725 21.4472 28.5788 21.8172 28.3938C23.2484 27.6625 23.8672 25.6313 23.5647 22.675C23.2847 19.9088 22.2397 16.5375 20.6222 13.175C20.5539 13.0418 20.4364 12.9405 20.2946 12.8926C20.1528 12.8446 19.9979 12.8539 19.8629 12.9183C19.7278 12.9828 19.6232 13.0973 19.5712 13.2377C19.5193 13.3781 19.5241 13.5332 19.5847 13.67C22.9472 20.6725 23.1847 26.4075 21.2972 27.37C19.3097 28.3863 14.5172 24.4263 10.8097 17.145C10.3847 16.3263 10.0134 15.52 9.68468 14.7325C10.1097 13.9725 10.5597 13.2075 11.0534 12.445C11.5472 11.69 12.0609 10.96 12.5834 10.2638H13.0759C13.7509 10.2638 14.4834 10.2763 15.2434 10.3238C23.4059 10.7525 28.9622 13.5238 28.8484 15.7413C28.7984 16.6975 27.6934 17.6638 25.8172 18.3913C25.6762 18.4481 25.5631 18.558 25.5024 18.6973C25.4416 18.8367 25.4379 18.9943 25.4922 19.1363C25.5189 19.2068 25.5593 19.2713 25.6112 19.3261C25.663 19.3808 25.7253 19.4247 25.7943 19.4552C25.8632 19.4857 25.9376 19.5021 26.013 19.5036C26.0884 19.5051 26.1633 19.4915 26.2334 19.4638C28.6147 18.5388 29.9209 17.2688 29.9959 15.8013C30.0834 14.1388 28.5334 12.5388 25.6209 11.3013V11.2888L25.6109 11.2813ZM10.0909 11.8125C9.75343 12.3313 9.44093 12.8463 9.13593 13.3675C8.78939 12.46 8.48778 11.536 8.23218 10.5988C9.12343 10.4613 10.0884 10.3613 11.1197 10.2988C10.7697 10.7863 10.4272 11.2913 10.0947 11.8113V11.7988L10.0909 11.8125ZM14.9972 13.2813C14.5413 13.2813 14.1042 13.4624 13.7818 13.7847C13.4595 14.107 13.2784 14.5442 13.2784 15C13.2784 15.4559 13.4595 15.893 13.7818 16.2154C14.1042 16.5377 14.5413 16.7188 14.9972 16.7188C15.453 16.7188 15.8902 16.5377 16.2125 16.2154C16.5348 15.893 16.7159 15.4559 16.7159 15C16.7159 14.5442 16.5348 14.107 16.2125 13.7847C15.8902 13.4624 15.453 13.2813 14.9972 13.2813Z" fill="#B8B8B8"/>
</svg>
